<?xml version="1.0" encoding="iso-8859-1"?>
<!-- Uploaded to: SVG Repo, www.svgrepo.com, Generator: SVG Repo Mixer Tools -->
<svg version="1.1" id="Layer_1" xmlns="http://www.w3.org/2000/svg" xmlns:xlink="http://www.w3.org/1999/xlink" 
	 viewBox="0 0 512 512" xml:space="preserve">
<path style="fill:#FDA409;" d="M499.073,175.505C465.33,73.56,369.261,0,256,0C114.616,0,0,114.616,0,256
	c0,113.575,73.97,209.858,176.354,243.348L499.073,175.505z"/>
<path style="fill:#FC870B;" d="M512,256c0-28.123-4.549-55.181-12.928-80.495l-84.35-84.35L110.887,433.881l65.467,65.467
	C201.424,507.549,228.191,512,256,512C397.385,512,512,397.385,512,256z"/>
<path style="fill:#813115;" d="M442.435,158.052c0,23.53-8.604,45.034-22.817,61.585v167.079c0,36.73-30.052,66.783-66.783,66.783
	H256l-33.391-195.027L256,63.443h91.826C400.072,63.443,442.435,105.806,442.435,158.052z"/>
<path style="fill:#934D2B;" d="M256,63.443v390.055h-97.948c-36.73,0-66.783-30.052-66.783-66.783v-168.37
	c-13.557-16.373-21.704-37.376-21.704-60.294c0-52.246,42.362-94.609,94.609-94.609H256z"/>
<path style="fill:#C9A06C;" d="M420.174,158.052c0,20.736-8.782,39.457-22.817,52.658v176.006c0,24.554-19.968,44.522-44.522,44.522
	H320l-97.391-289.881l153.047-50.086C401.774,102.196,420.174,128.017,420.174,158.052z"/>
<path style="fill:#B78456;" d="M347.826,85.704H256l-55.652,172.767L256,431.238h64V297.672h22.261v94.119
	c0,9.22,7.475,16.696,16.696,16.696c9.22,0,16.696-7.475,16.696-16.696V288.835l-22.261-30.609l22.261-30.609V91.277
	C367.082,87.692,357.682,85.704,347.826,85.704z"/>
<path style="fill:#DBBC82;" d="M136.041,91.399c-25.957,10.999-44.215,36.735-44.215,66.653c0,20.191,8.326,38.467,21.704,51.601
	v177.063c0,24.554,19.968,44.522,44.522,44.522H256V141.357L136.041,91.399z"/>
<path style="fill:#C9A06C;" d="M164.174,85.704c-9.856,0-19.256,1.988-27.826,5.573v136.34l22.261,30.609l-22.261,30.609v80.696
	c0,9.22,7.475,16.696,16.696,16.696s16.696-7.475,16.696-16.696L256,163.617V85.704H164.174z"/>
<path style="fill:#FFF3AD;" d="M375.652,227.617c0-66.083-53.57-119.652-119.652-119.652l-44.399,150.506L256,408.487
	c66.081,0,119.652-53.57,119.652-119.652C375.652,278.165,375.652,238.287,375.652,227.617z"/>
<path style="fill:#FFFFFF;" d="M136.348,227.617c0,10.67,0,50.548,0,61.217c0,66.082,53.571,119.652,119.652,119.652V107.965
	C189.919,107.965,136.348,161.535,136.348,227.617z"/>
<g>
	<rect x="211.478" y="347.759" style="fill:#FFF3AD;" width="22.261" height="22.261"/>
	<rect x="189.217" y="303.238" style="fill:#FFF3AD;" width="22.261" height="22.261"/>
</g>
<rect x="320" y="275.411" style="fill:#FFE376;" width="22.261" height="22.261"/>
<path style="fill:#FA690E;" d="M256,130.226l-30.609,61.217L256,252.661c33.81,0,61.217-27.408,61.217-61.217
	S289.81,130.226,256,130.226z"/>
<path style="fill:#FC870B;" d="M194.783,191.443c0,33.81,27.408,61.217,61.217,61.217V230.4l-16.696-38.957L256,152.487v-22.261
	C222.191,130.226,194.783,157.634,194.783,191.443z"/>
<path style="fill:#FDA409;" d="M217.043,191.443c0,21.515,17.441,38.957,38.957,38.957v-77.913
	C234.485,152.487,217.043,169.928,217.043,191.443z"/>
</svg>