<?xml version="1.0" encoding="iso-8859-1"?>
<!-- Uploaded to: SVG Repo, www.svgrepo.com, Generator: SVG Repo Mixer Tools -->
<svg height="800px" width="800px" version="1.1" id="Layer_1" xmlns="http://www.w3.org/2000/svg" xmlns:xlink="http://www.w3.org/1999/xlink" 
	 viewBox="0 0 512 512" xml:space="preserve">
<g>
	<path style="fill:#62AF62;" d="M368.849,145.502h-28.212c-4.328,0-7.837-3.508-7.837-7.837v-28.212
		c0-4.329,3.509-7.837,7.837-7.837s7.837,3.508,7.837,7.837v20.376h20.376c4.328,0,7.837,3.508,7.837,7.837
		C376.686,141.993,373.177,145.502,368.849,145.502z"/>
	<path style="fill:#62AF62;" d="M348.564,165.788h-28.212c-4.328,0-7.837-3.508-7.837-7.837v-28.212
		c0-4.329,3.509-7.837,7.837-7.837c4.328,0,7.837,3.508,7.837,7.837v20.376h20.376c4.328,0,7.837,3.508,7.837,7.837
		C356.401,162.279,352.892,165.788,348.564,165.788z"/>
</g>
<path style="fill:#519351;" d="M300.841,185.297c-2.005,0-4.011-0.765-5.541-2.295c-3.06-3.062-3.06-8.023,0-11.083l63.103-63.105
	c3.06-3.059,8.023-3.059,11.082,0c3.06,3.062,3.06,8.023,0,11.083l-63.103,63.105C304.852,184.532,302.846,185.297,300.841,185.297z
	"/>
<g>
	<path style="fill:#62AF62;" d="M494.327,317.82h-28.212c-4.328,0-7.837-3.509-7.837-7.837v-28.212c0-4.329,3.509-7.837,7.837-7.837
		c4.328,0,7.837,3.508,7.837,7.837v20.375h20.376c4.328,0,7.837,3.508,7.837,7.837C502.163,314.312,498.655,317.82,494.327,317.82z"
		/>
	<path style="fill:#62AF62;" d="M474.042,338.106H445.83c-4.328,0-7.837-3.508-7.837-7.837v-28.212c0-4.329,3.509-7.837,7.837-7.837
		c4.328,0,7.837,3.508,7.837,7.837v20.376h20.375c4.328,0,7.837,3.508,7.837,7.837C481.879,334.597,478.37,338.106,474.042,338.106z
		"/>
</g>
<path style="fill:#519351;" d="M426.318,357.615c-2.005,0-4.011-0.765-5.541-2.295c-3.06-3.062-3.06-8.023,0-11.083l63.103-63.105
	c3.061-3.059,8.023-3.059,11.082,0c3.06,3.062,3.06,8.023,0,11.083l-63.103,63.105C430.33,356.85,428.324,357.615,426.318,357.615z"
	/>
<path style="fill:#FFE060;" d="M50.416,274.922c14.282-14.205,37.519-14.206,51.801,0.003c3.25,3.232,3.251,8.477,0,11.71
	l-40.027,39.82c-3.252,3.235-8.523,3.235-11.774-0.001C36.136,312.248,36.135,289.13,50.416,274.922z"/>
<path style="fill:#DDB690;" d="M67.617,387.917h117.92l21.575-21.575c12.242-12.241,12.242-32.09,0-44.331l-58.369-58.369
	c-12.242-12.242-32.09-12.242-44.331,0l-58.37,58.369c-12.241,12.241-12.241,32.09,0,44.331L67.617,387.917z"/>
<g>
	<path style="fill:#AF805A;" d="M92.619,305.516h-1.045c-4.328,0-7.837,3.508-7.837,7.837c0,4.329,3.509,7.837,7.837,7.837h1.045
		c4.328,0,7.837-3.508,7.837-7.837C100.455,309.024,96.947,305.516,92.619,305.516z"/>
	<path style="fill:#AF805A;" d="M155.32,296.112l-1.046-0.001c-0.002,0-0.005,0-0.007,0c-4.325,0-7.833,3.504-7.837,7.829
		c-0.004,4.328,3.501,7.84,7.829,7.844l1.046,0.001c0.003,0,0.005,0,0.007,0c4.325,0,7.833-3.504,7.837-7.829
		C163.154,299.628,159.648,296.116,155.32,296.112z"/>
	<path style="fill:#AF805A;" d="M127.1,280.438h-1.045c-4.328,0-7.837,3.508-7.837,7.837c0,4.329,3.509,7.837,7.837,7.837h1.045
		c4.328,0,7.837-3.508,7.837-7.837C134.937,283.947,131.428,280.438,127.1,280.438z"/>
	<path style="fill:#AF805A;" d="M123.965,314.92h-1.044c-4.328,0-7.837,3.508-7.837,7.837c0,4.329,3.509,7.837,7.837,7.837h1.044
		c4.328,0,7.837-3.508,7.837-7.837C131.801,318.428,128.293,314.92,123.965,314.92z"/>
</g>
<path style="fill:#EFDFBB;" d="M151.606,89.293c-1.045-6.131,0.783-12.657,5.515-17.389c7.753-7.753,20.323-7.753,28.076,0
	s7.753,20.324,0,28.077c-0.627,0.625-1.286,1.197-1.972,1.723l113.17,113.169c5.304,5.304,5.304,13.904,0,19.21
	c-5.305,5.303-13.907,5.304-19.21,0l-113.169-113.17c-0.525,0.684-1.097,1.345-1.721,1.972c-7.754,7.753-20.324,7.753-28.078,0
	c-7.753-7.753-7.752-20.324,0.001-28.077C138.949,90.076,145.476,88.248,151.606,89.293z"/>
<path style="fill:#D3A179;" d="M213.644,151.33c-30.604,30.605-25.973,84.855,10.343,121.174
	c36.318,36.315,83.179,33.559,113.784,2.955c30.604-30.605,33.362-77.469-2.954-113.784
	C298.499,125.356,244.249,120.726,213.644,151.33z"/>
<path style="opacity:0.1;enable-background:new    ;" d="M256.525,272.503c-36.318-36.319-40.947-90.569-10.343-121.174
	c9.759-9.759,21.929-15.919,35.149-18.627c-25.111-4.797-50.241,1.182-67.686,18.627c-30.604,30.605-25.973,84.855,10.343,121.174
	c23.148,23.147,50.575,30.398,75.351,24.706C284.531,293.836,269.821,285.799,256.525,272.503z"/>
<g>
	<path style="fill:#B2754B;" d="M330.501,214.5l-0.74-0.739c-3.063-3.061-8.025-3.055-11.083,0.007
		c-3.058,3.063-3.054,8.025,0.007,11.083l0.74,0.739c1.53,1.529,3.534,2.291,5.538,2.291c2.007,0,4.014-0.766,5.545-2.299
		C333.567,222.52,333.563,217.557,330.501,214.5z"/>
	<path style="fill:#B2754B;" d="M317.209,242.582c-3.058-3.063-8.02-3.066-11.083-0.007c-3.063,3.058-3.066,8.021-0.007,11.082
		l0.739,0.74c1.531,1.533,3.538,2.299,5.545,2.299c2.004,0,4.008-0.764,5.538-2.291c3.063-3.058,3.066-8.021,0.007-11.082
		L317.209,242.582z"/>
	<path style="fill:#B2754B;" d="M309.447,190.199c2.007,0,4.015-0.766,5.545-2.299c3.058-3.063,3.054-8.025-0.007-11.083
		l-0.739-0.738c-3.063-3.059-8.025-3.056-11.083,0.007c-3.058,3.063-3.054,8.025,0.007,11.083l0.739,0.738
		C305.439,189.435,307.442,190.199,309.447,190.199z"/>
	<path style="fill:#B2754B;" d="M293.562,201.202c-3.06-3.059-8.023-3.059-11.083,0c-3.06,3.062-3.06,8.023,0,11.083l0.739,0.739
		c1.53,1.53,3.536,2.295,5.541,2.295c2.005,0,4.011-0.765,5.541-2.295c3.06-3.062,3.06-8.023,0-11.083L293.562,201.202z"/>
	<path style="fill:#B2754B;" d="M282.479,163.521l-0.739-0.739c-3.061-3.059-8.023-3.059-11.083,0c-3.06,3.062-3.06,8.023,0,11.083
		l0.739,0.739c1.53,1.53,3.536,2.295,5.541,2.295c2.005,0,4.011-0.765,5.541-2.295C285.54,171.543,285.54,166.582,282.479,163.521z"
		/>
</g>
<path style="fill:#FFE060;" d="M381.255,223.366c20.144,0.054,36.576,16.484,36.628,36.631c0.013,4.584-3.697,8.293-8.281,8.281
	l-56.46-0.146c-4.587-0.013-8.314-3.74-8.325-8.326C344.763,239.662,361.109,223.313,381.255,223.366z"/>
<circle style="fill:#D3A179;" cx="382.757" cy="324.764" r="70.593"/>
<g>
	<path style="fill:#AF805A;" d="M414.679,293.354h-1.045c-4.328,0-7.837,3.508-7.837,7.837s3.509,7.837,7.837,7.837h1.045
		c4.328,0,7.837-3.508,7.837-7.837C422.516,296.863,419.007,293.354,414.679,293.354z"/>
	<path style="fill:#AF805A;" d="M390.647,268.276h-1.045c-4.328,0-7.837,3.508-7.837,7.837s3.509,7.837,7.837,7.837h1.045
		c4.328,0,7.837-3.508,7.837-7.837C398.483,271.785,394.975,268.276,390.647,268.276z"/>
</g>
<g>
	<path style="fill:#62AF62;" d="M137.781,208.718h-28.212c-4.328,0-7.837-3.508-7.837-7.837c0-4.329,3.509-7.837,7.837-7.837h20.376
		v-20.376c0-4.329,3.509-7.837,7.837-7.837c4.328,0,7.837,3.508,7.837,7.837v28.212C145.618,205.21,142.109,208.718,137.781,208.718
		z"/>
	<path style="fill:#62AF62;" d="M158.066,229.003h-28.212c-4.328,0-7.837-3.508-7.837-7.837c0-4.329,3.509-7.837,7.837-7.837h20.376
		v-20.376c0-4.329,3.509-7.837,7.837-7.837c4.328,0,7.837,3.508,7.837,7.837v28.212
		C165.903,225.494,162.395,229.003,158.066,229.003z"/>
</g>
<path style="fill:#519351;" d="M177.576,248.513c-2.005,0-4.011-0.765-5.541-2.295l-63.103-63.103
	c-3.061-3.062-3.061-8.023,0-11.083c3.061-3.059,8.023-3.059,11.082,0l63.103,63.103c3.061,3.062,3.061,8.023,0,11.083
	C181.588,247.748,179.582,248.513,177.576,248.513z"/>
<circle style="fill:#BC8C6C;" cx="216.733" cy="268.339" r="70.593"/>
<path style="opacity:0.1;enable-background:new    ;" d="M237.773,327.953c-38.986,0-70.589-31.604-70.589-70.589
	c0-22.954,10.963-43.341,27.931-56.232c-28.41,9.13-48.974,35.761-48.974,67.204c0,38.984,31.603,70.589,70.589,70.589
	c16.031,0,30.807-5.352,42.657-14.356C252.574,326.757,245.314,327.953,237.773,327.953z"/>
<g>
	<path style="fill:#996B48;" d="M185.847,240.065h-1.045c-4.328,0-7.837,3.508-7.837,7.837c0,4.329,3.509,7.837,7.837,7.837h1.045
		c4.328,0,7.837-3.508,7.837-7.837C193.683,243.573,190.175,240.065,185.847,240.065z"/>
	<path style="fill:#996B48;" d="M238.1,230.661l-1.046-0.001c-0.003,0-0.005,0-0.007,0c-4.325,0-7.833,3.505-7.837,7.829
		c-0.004,4.328,3.501,7.84,7.829,7.844l1.046,0.001c0.002,0,0.005,0,0.007,0c4.325,0,7.833-3.505,7.837-7.829
		C245.932,234.177,242.428,230.664,238.1,230.661z"/>
	<path style="fill:#996B48;" d="M209.879,214.988h-1.045c-4.328,0-7.837,3.508-7.837,7.837c0,4.329,3.509,7.837,7.837,7.837h1.045
		c4.328,0,7.837-3.508,7.837-7.837C217.716,218.495,214.207,214.988,209.879,214.988z"/>
</g>
<path style="fill:#EFDFBB;" d="M436.152,182.58c-4.732-4.732-11.259-6.56-17.39-5.515c1.045-6.13-0.783-12.656-5.515-17.389
	c-7.753-7.753-20.323-7.754-28.076,0c-7.753,7.753-7.753,20.323,0,28.076c0.627,0.627,1.287,1.197,1.972,1.723l-41.027,41.027
	c3.769,2.473,7.332,5.323,10.609,8.6c3.278,3.279,6.127,6.841,8.601,10.61l41.027-41.027c0.525,0.683,1.097,1.344,1.723,1.971
	c7.752,7.753,20.322,7.753,28.075,0C443.905,202.904,443.904,190.333,436.152,182.58z"/>
<path style="fill:#DDB690;" d="M356.724,239.103c30.605,30.605,25.973,84.855-10.343,121.173
	c-36.318,36.316-83.179,33.56-113.784,2.955c-30.604-30.605-33.361-77.467,2.956-113.784
	C271.87,213.129,326.12,208.498,356.724,239.103z"/>
<path style="opacity:0.1;enable-background:new    ;" d="M254.539,363.231c-30.604-30.605-33.361-77.467,2.956-113.784
	c17.091-17.091,38.155-27.161,58.858-29.846c-27.02-3.623-57.575,6.619-80.801,29.846c-36.318,36.318-33.56,83.178-2.956,113.784
	c18.052,18.052,41.759,26.405,65.623,22.776C282.169,383.539,267.006,375.696,254.539,363.231z"/>
<g>
	<path style="fill:#AF805A;" d="M245.157,315.652c-2.007,0-4.014-0.766-5.545-2.299c-3.058-3.063-3.054-8.025,0.007-11.082
		l0.74-0.739c3.064-3.058,8.025-3.055,11.083,0.007c3.058,3.063,3.054,8.025-0.007,11.083l-0.74,0.739
		C249.164,314.888,247.16,315.652,245.157,315.652z"/>
	<path style="fill:#AF805A;" d="M326.314,262.747c-2.005,0-4.011-0.765-5.541-2.295c-3.06-3.062-3.06-8.023,0-11.083l0.739-0.739
		c3.061-3.059,8.023-3.059,11.082,0c3.06,3.062,3.06,8.023,0,11.083l-0.739,0.739C330.326,261.981,328.319,262.747,326.314,262.747z
		"/>
	<path style="fill:#AF805A;" d="M260.674,277.971c-2.005,0-4.011-0.765-5.541-2.295c-3.061-3.062-3.061-8.023,0-11.083l0.739-0.739
		c3.061-3.059,8.023-3.059,11.082,0c3.061,3.062,3.061,8.023,0,11.083l-0.739,0.739
		C264.684,277.205,262.679,277.971,260.674,277.971z"/>
	<path style="fill:#AF805A;" d="M281.362,303.092c-2.005,0-4.011-0.765-5.541-2.295c-3.06-3.062-3.06-8.023,0-11.083l0.739-0.739
		c3.06-3.059,8.023-3.059,11.082,0c3.06,3.062,3.06,8.023,0,11.083l-0.739,0.739C285.372,302.327,283.367,303.092,281.362,303.092z"
		/>
	<path style="fill:#AF805A;" d="M293.184,264.672c-2.005,0-4.011-0.765-5.541-2.295c-3.06-3.062-3.06-8.023,0-11.083l0.739-0.739
		c3.06-3.059,8.023-3.059,11.083,0c3.06,3.062,3.06,8.023,0,11.083l-0.739,0.739C297.195,263.907,295.189,264.672,293.184,264.672z"
		/>
</g>
<g>
	<path style="fill:#FFE060;" d="M384.905,356.838c-14.282,14.207-37.519,14.207-51.801-0.001c-3.251-3.234-3.251-8.477,0-11.71
		l40.027-39.821c3.252-3.235,8.523-3.234,11.774,0C399.185,319.513,399.187,342.63,384.905,356.838z"/>
	<path style="fill:#FFE060;" d="M195.263,305.893c20.144,0.054,36.576,16.484,36.628,36.631c0.013,4.584-3.697,8.293-8.281,8.281
		l-56.46-0.146c-4.587-0.013-8.314-3.74-8.325-8.326C158.771,322.189,175.118,305.842,195.263,305.893z"/>
</g>
<path style="fill:#C14616;" d="M442.514,435.46c0,5.771-4.678,10.449-10.449,10.449H79.935c-5.771,0-10.449-4.678-10.449-10.449
	v-57.469c0-5.77,4.678-10.449,10.449-10.449h352.131c5.771,0,10.449,4.679,10.449,10.449V435.46z"/>
<path style="opacity:0.1;enable-background:new    ;" d="M122.253,435.46v-57.469c0-5.77,4.678-10.449,10.449-10.449H79.935
	c-5.771,0-10.449,4.679-10.449,10.449v57.469c0,5.771,4.678,10.449,10.449,10.449h52.767
	C126.931,445.909,122.253,441.232,122.253,435.46z"/>
<path style="fill:#EF645E;" d="M77.937,418.258c-38.654,0-70.1-31.32-70.1-69.817c0-5.629,4.582-10.193,10.234-10.193H493.93
	c5.652,0,10.234,4.564,10.234,10.193c0,38.498-31.446,69.817-70.099,69.817H77.937z"/>
<path style="opacity:0.1;enable-background:new    ;" d="M60.604,348.44c0-5.629,4.582-10.193,10.234-10.193H18.07
	c-5.652,0-10.234,4.564-10.234,10.193c0,38.498,31.446,69.817,70.1,69.817h52.767C92.05,418.258,60.604,386.938,60.604,348.44z"/>
<path d="M512,347.88c0-9.942-8.106-18.03-18.07-18.03h-32.941c0.113-1.683,0.189-3.377,0.189-5.091
	c0-27.397-14.131-51.542-35.476-65.57c-0.318-15.754-8.883-29.551-21.542-37.228l2.415-2.415c4.548,3.097,9.915,4.763,15.539,4.763
	c7.397,0,14.35-2.881,19.579-8.11c10.797-10.796,10.798-28.363,0.001-39.161c-4.171-4.17-9.445-6.845-15.169-7.751
	c-0.918-5.673-3.585-11.001-7.736-15.153c-5.23-5.23-12.184-8.11-19.58-8.11c-7.397,0-14.35,2.881-19.579,8.11
	c-9.534,9.534-10.649,24.348-3.345,35.116l-9.983,9.983c-4.214-15.484-12.961-30.116-25.944-43.1
	c-20.894-20.894-48.439-32.877-75.575-32.877c-14.221,0-27.642,3.356-39.287,9.634l-6.775-6.775c-3.061-3.059-8.023-3.059-11.083,0
	c-3.061,3.062-3.061,8.023,0,11.083l4.704,4.703c-1.456,1.244-2.88,2.528-4.239,3.888c-1.367,1.368-2.648,2.791-3.888,4.24
	l-34.657-34.657c-4.475-4.473-9.238-1.605-12.803,1.972c-4.685,4.685-12.311,4.686-16.996,0c-4.685-4.684-4.684-12.308,0.001-16.994
	c2.742-2.743,6.678-3.985,10.53-3.331c2.508,0.425,5.061-0.388,6.859-2.184c1.797-1.797,2.611-4.353,2.184-6.858
	c-0.656-3.853,0.588-7.79,3.331-10.532c4.685-4.685,12.308-4.685,16.994,0c2.27,2.27,3.519,5.287,3.519,8.497
	c0,3.21-1.25,6.228-3.51,8.489c-3.582,3.566-6.46,8.334-1.981,12.815l14.28,14.28c3.061,3.059,8.023,3.059,11.083,0
	c3.061-3.062,3.061-8.023,0-11.083l-8.96-8.959c3.097-4.549,4.762-9.916,4.762-15.54c0-7.397-2.88-14.35-8.11-19.58
	c-5.23-5.23-12.184-8.11-19.579-8.11c-7.397,0-14.35,2.881-19.579,8.11c-4.155,4.156-6.822,9.489-7.739,15.167
	c-5.678,0.916-11.011,3.584-15.166,7.737c-5.23,5.231-8.11,12.184-8.11,19.58c-0.001,7.396,2.88,14.35,8.11,19.58
	c9.531,9.531,24.34,10.643,35.115,3.344l31.413,31.412c-5.435,10.104-8.532,21.359-9.337,33.066
	c-22.243,9.56-39.2,29.122-45.196,52.992c-4.438-1.71-9.193-2.616-14.093-2.616c-10.467,0-20.307,4.076-27.707,11.476l-2.879,2.879
	c-6.041-2.97-12.733-4.547-19.675-4.547c-11.879,0-23.04,4.593-31.426,12.935c-8.397,8.353-13.021,19.476-13.021,31.322
	c0,7.139,1.694,14.007,4.869,20.171c-2.082,2.81-3.731,5.838-4.971,8.99H18.07C8.106,329.85,0,337.938,0,347.88
	c0,37.253,26.468,68.451,61.649,75.936v11.645c0,10.082,8.203,18.286,18.286,18.286h352.131c10.082,0,18.286-8.203,18.286-18.286
	v-11.645C485.531,416.331,512,385.134,512,347.88z M445.504,324.759c0,1.716-0.094,3.409-0.233,5.091h-41.849
	c-0.307-11.385-4.884-22.035-12.991-30.101c-1.7-1.691-3.718-2.94-5.911-3.731c0.732-11.746-0.746-23.286-4.47-33.95
	c0.895-0.04,1.796-0.061,2.701-0.061C417.353,262.008,445.504,290.158,445.504,324.759z M217.011,303.807
	c1.274-17.468,9.522-34.258,24.084-48.821c17.976-17.975,41.482-28.285,64.491-28.285c17.834,0,34.027,6.373,45.597,17.943
	c14.043,14.044,19.689,33.796,17.44,54.185c-0.349,0.294-0.693,0.595-1.02,0.921l-30.256,30.101H237.84
	C234.5,318.739,226.932,309.425,217.011,303.807z M221.062,329.85h-51.57c1.369-2.832,3.206-5.45,5.493-7.743
	c5.389-5.402,12.555-8.378,20.256-8.378C206.536,313.761,216.343,320.337,221.062,329.85z M378.657,310.861
	c0.037-0.036,0.146-0.145,0.361-0.145c0.214,0,0.324,0.109,0.359,0.145c5.128,5.101,8.071,11.805,8.372,18.989H359.57
	L378.657,310.861z M408.453,250.681c-8.057-2.803-16.7-4.347-25.7-4.347c-1.017,0-2.026,0.027-3.032,0.066l12.834-12.833
	C399.969,236.772,405.789,242.999,408.453,250.681z M392.683,195.018c3.267-3.267,2.908-8.936-0.77-11.758
	c-0.438-0.336-0.842-0.689-1.202-1.049c-4.685-4.684-4.685-12.308,0-16.994c2.27-2.27,5.287-3.519,8.496-3.519
	c3.21,0,6.228,1.25,8.497,3.52c2.476,2.475,3.581,5.791,3.481,9.245c-0.091,3.096-0.415,5.694,2.035,8.144
	c2.37,2.37,4.859,2.196,7.88,2.053c3.562-0.168,6.95,0.902,9.51,3.461c4.685,4.685,4.685,12.309,0,16.994
	c-2.27,2.271-5.287,3.52-8.497,3.52c-3.209,0-6.227-1.25-8.496-3.519c-3.562-3.573-8.276-6.498-12.806-1.972l-34.657,34.658
	c-1.24-1.449-2.52-2.873-3.887-4.241c-1.359-1.36-2.785-2.643-4.239-3.888L392.683,195.018z M219.185,156.872
	c11.57-11.57,27.764-17.942,45.598-17.942c23.01,0,46.517,10.31,64.493,28.286c13.584,13.583,21.671,29.108,23.732,45.31
	l-8.136,8.136c-11.644-6.279-25.066-9.635-39.287-9.635c-10.248,0-20.553,1.712-30.538,4.964
	c-14.365-15.995-35.179-26.083-58.318-26.083c-4.991,0-9.869,0.489-14.606,1.384C204.145,178.275,209.77,166.287,219.185,156.872z
	 M216.73,205.584c16.505,0,31.528,6.422,42.742,16.877c-10.649,5.413-20.647,12.632-29.46,21.443
	c-16.171,16.172-25.781,34.898-28.213,54.65c-2.128-0.321-4.303-0.492-6.516-0.498c-0.007,0-0.11,0-0.116,0
	c-10.054,0-19.586,3.346-27.35,9.495c-8.641-10.751-13.839-24.381-13.839-39.216C153.977,233.733,182.128,205.584,216.73,205.584z
	 M109.954,269.183c4.44-4.44,10.343-6.886,16.623-6.886c4.209,0,8.237,1.122,11.781,3.184c-0.034,0.947-0.054,1.898-0.054,2.855
	c0,19.512,7.181,37.367,19.017,51.101c-1.973,3.263-3.492,6.763-4.556,10.414H49.575c0.611-0.798,1.278-1.566,2.008-2.297
	L109.954,269.183z M55.944,280.478c5.429-5.399,12.664-8.374,20.373-8.374c2.589,0,5.119,0.349,7.549,1.001L48.6,308.371
	c-0.69-2.47-1.056-5.047-1.056-7.683C47.543,293.046,50.526,285.868,55.944,280.478z M434.064,409.86h-74.619
	c-4.328,0-7.837,3.508-7.837,7.837c0,4.329,3.509,7.837,7.837,7.837h74.619c0.206,0,0.409-0.015,0.613-0.016v9.942
	c0,1.441-1.172,2.612-2.612,2.612H79.935c-1.44,0-2.612-1.171-2.612-2.612v-9.942c0.206,0.001,0.409,0.016,0.614,0.016h240.757
	c4.328,0,7.837-3.508,7.837-7.837c0-4.329-3.509-7.837-7.837-7.837H77.937c-34.332,0-62.263-27.804-62.263-61.98
	c0-1.299,1.075-2.356,2.397-2.356H493.93c1.322,0,2.397,1.057,2.397,2.356C496.327,382.056,468.395,409.86,434.064,409.86z"/>
</svg>