<?xml version="1.0" encoding="iso-8859-1"?>
<!-- Uploaded to: SVG Repo, www.svgrepo.com, Generator: SVG Repo Mixer Tools -->
<svg height="800px" width="800px" version="1.1" id="Layer_1" xmlns="http://www.w3.org/2000/svg" xmlns:xlink="http://www.w3.org/1999/xlink" 
	 viewBox="0 0 512.001 512.001" xml:space="preserve">
<g transform="translate(1200 590)">
	<path style="fill:#EEECDE;" d="M-1026.437-451.153h-17.356v-34.712H-844.2c0-16.202-11.143-29.696-26.155-33.523
		c0.017-0.399,0.121-0.781,0.121-1.189c0-19.17-15.542-34.712-34.712-34.712c-0.408,0-0.79,0.104-1.189,0.121
		c-3.827-15.013-17.321-26.155-33.523-26.155c-13.173,0-24.489,7.42-30.373,18.232c-5.884-10.813-17.2-18.232-30.373-18.232
		c-11.854,0-22.294,5.962-28.559,15.03c-4.148-8.86-13.078-15.03-23.509-15.03c-14.379,0-26.034,11.654-26.034,26.034
		c0,0.434,0.104,0.842,0.13,1.267c-2.829-0.746-5.745-1.267-8.808-1.267c-19.17,0-34.712,15.542-34.712,34.712
		c-19.17,0-34.712,15.542-34.712,34.712c-19.17,0-34.712,15.542-34.712,34.712s15.542,34.712,34.712,34.712h131.784
		L-1026.437-451.153z"/>
	<path style="fill:#E64C3C;" d="M-1010.535-108.529l-12.678-273.2h-159.432l15.959,279.179c0.79,13.781,12.193,24.55,25.99,24.55
		h162.174C-995.626-78-1009.719-91.442-1010.535-108.529"/>
	<g>
		<path style="fill:#D2C1A3;" d="M-935.022-529.255c-1.475,0-2.968-0.373-4.339-1.163c-4.148-2.404-5.571-7.706-3.159-11.854
			c7.723-13.381,22.137-21.695,37.576-21.695c4.799,0,8.678,3.888,8.678,8.678s-3.879,8.678-8.678,8.678
			c-9.277,0-17.92,4.99-22.563,13.017C-929.103-530.808-932.019-529.255-935.022-529.255"/>
		<path style="fill:#D2C1A3;" d="M-1091.827-494.556c-3.003,0-5.91-1.553-7.515-4.33c-4.643-8.027-13.286-13.017-22.554-13.017
			c-4.799,0-8.678-3.879-8.678-8.678c0-4.79,3.879-8.678,8.678-8.678c15.438,0,29.835,8.305,37.567,21.678
			c2.412,4.148,0.989,9.459-3.159,11.863C-1088.859-494.929-1090.352-494.556-1091.827-494.556"/>
		<path style="fill:#D2C1A3;" d="M-1112.022-442.162c-2.222,0-4.443-0.85-6.135-2.543c-3.393-3.384-3.393-8.878,0-12.271
			c10.908-10.917,26.945-15.212,41.889-11.238c4.625,1.232,7.385,5.979,6.144,10.613c-1.232,4.643-5.97,7.394-10.622,6.153
			c-8.956-2.395-18.597,0.2-25.14,6.743C-1107.579-443.013-1109.8-442.162-1112.022-442.162"/>
		<path style="fill:#D2C1A3;" d="M-1052.48-511.899c-1.623,0-3.272-0.46-4.738-1.414c-4.018-2.621-5.146-7.992-2.517-12.01
			c4.92-7.541,14.744-12.453,25.027-12.54c10.249-0.295,18.744,4.452,24.133,12.427c2.69,3.966,1.649,9.364-2.326,12.054
			c-3.966,2.673-9.364,1.631-12.045-2.334c-2.699-3.983-6.699-4.825-9.632-4.79c-4.947,0.043-9.164,2.438-10.631,4.677
			C-1046.874-513.288-1049.651-511.899-1052.48-511.899"/>
		<path style="fill:#D2C1A3;" d="M-1026.725-550.446c-4.235,0-7.94-3.098-8.574-7.411c-1.25-8.426-8.626-14.787-17.174-14.787
			c-4.799,0-8.678-3.888-8.678-8.678s3.879-8.678,8.678-8.678c17.087,0,31.848,12.731,34.339,29.609
			c0.703,4.738-2.577,9.155-7.315,9.85C-1025.875-550.472-1026.309-550.446-1026.725-550.446"/>
	</g>
	<polygon style="fill:#FFFFFF;" points="-1139.535,-381.73 -1099.269,-381.73 -1087.181,-78.001 -1127.447,-78.001 	"/>
	<path style="fill:#F3D55B;" d="M-1010.535-108.529l-15.907-342.623h277.695l-15.898,342.623C-765.46-91.442-779.553-78-796.657-78
		h-181.864C-995.626-78-1009.719-91.442-1010.535-108.529"/>
	<path style="fill:#FFFFFF;" d="M-826.844-320.984c0-33.549-27.197-60.746-60.746-60.746c-33.549,0-60.746,27.197-60.746,60.746
		s27.197,60.746,60.746,60.746S-826.844-287.435-826.844-320.984"/>
	<g>
		<path style="fill:#F3D55B;" d="M-887.59-286.272c-19.144,0-34.712-15.568-34.712-34.712c0-4.79,3.879-8.678,8.678-8.678
			c4.799,0,8.678,3.888,8.678,8.678c0,9.572,7.784,17.356,17.356,17.356c4.799,0,8.678,3.888,8.678,8.678
			S-882.791-286.272-887.59-286.272"/>
		<path style="fill:#F3D55B;" d="M-861.556-312.306c-4.799,0-8.678-3.888-8.678-8.678c0-9.572-7.784-17.356-17.356-17.356
			c-4.799,0-8.678-3.888-8.678-8.678s3.879-8.678,8.678-8.678c19.144,0,34.712,15.568,34.712,34.712
			C-852.878-316.194-856.757-312.306-861.556-312.306"/>
	</g>
	<g>
		<path style="fill:#B7A144;" d="M-913.623-451.153v75.351c7.897-3.758,16.705-5.927,26.034-5.927s18.137,2.169,26.034,5.927
			v-75.351H-913.623z"/>
		<path style="fill:#B7A144;" d="M-913.623-266.163v188.164h52.068v-188.164c-7.897,3.758-16.705,5.927-26.034,5.927
			C-896.918-260.236-905.727-262.405-913.623-266.163"/>
	</g>
	<path style="fill:#EBECEC;" d="M-800.801-477.187c-0.625,0-1.267-0.069-1.892-0.208c-4.677-1.041-7.628-5.675-6.595-10.353
		l17.13-76.974c2.326-11.576,10.969-20.879,22.528-24.073c11.542-3.211,23.743,0.312,31.822,9.19l47.599,53.239
		c3.193,3.575,2.89,9.06-0.677,12.262c-3.575,3.185-9.068,2.898-12.253-0.686l-47.564-53.187c-3.636-4.009-9.016-5.571-14.293-4.096
		c-5.294,1.467-9.103,5.554-10.179,10.943l-17.156,77.147C-793.243-479.938-796.827-477.187-800.801-477.187"/>
	<polygon style="fill:#E64C3C;" points="-1043.793,-451.153 -731.386,-451.153 -731.386,-485.865 -1043.793,-485.865 	"/>
	<g>
		<path style="fill:#B7A144;" d="M-792.132-451.153L-809.488-78h12.826c17.113,0,31.206-13.442,32.013-30.529l15.907-342.623h-43.39
			V-451.153z"/>
		<path style="fill:#B7A144;" d="M-1010.535-108.529l-15.907-342.623h43.39L-965.696-78h-12.826
			C-995.626-78-1009.719-91.442-1010.535-108.529"/>
	</g>
	<g>
		<path style="fill:#F3D55B;" d="M-1024.826-416.442h-157.818c-9.58,0-17.356,7.767-17.356,17.356s7.775,17.356,17.356,17.356
			h159.432L-1024.826-416.442z"/>
		<path style="fill:#F3D55B;" d="M-1020.634-326.138c-23.587,8.34-40.517,30.781-40.517,57.223c0,28.42,19.543,52.207,45.906,58.845
			L-1020.634-326.138z"/>
	</g>
</g>
</svg>